<svg width="18" height="16" viewBox="0 0 18 16" fill="none" xmlns="http://www.w3.org/2000/svg">
<path d="M16.5 9.40625L17.9688 2.90625C18.0312 2.67708 17.9896 2.46875 17.8438 2.28125C17.6979 2.09375 17.5 2 17.25 2H4.96875L4.6875 0.59375C4.64583 0.427083 4.55208 0.291667 4.40625 0.1875C4.28125 0.0625 4.13542 0 3.96875 0H0.75C0.541667 0 0.364583 0.0729167 0.21875 0.21875C0.0729167 0.364583 0 0.541667 0 0.75V1.25C0 1.45833 0.0729167 1.63542 0.21875 1.78125C0.364583 1.92708 0.541667 2 0.75 2H2.9375L5.125 12.7188C4.85417 12.8854 4.63542 13.1042 4.46875 13.375C4.32292 13.6458 4.25 13.9375 4.25 14.25C4.25 14.7292 4.41667 15.1354 4.75 15.4688C5.10417 15.8229 5.52083 16 6 16C6.47917 16 6.88542 15.8229 7.21875 15.4688C7.57292 15.1354 7.75 14.7188 7.75 14.2188C7.75 13.7396 7.57292 13.3333 7.21875 13H13.7812C13.4271 13.3333 13.25 13.7396 13.25 14.2188C13.25 14.7188 13.4167 15.1354 13.75 15.4688C14.1042 15.8229 14.5208 16 15 16C15.4792 16 15.8854 15.8229 16.2188 15.4688C16.5729 15.1354 16.75 14.7292 16.75 14.25C16.75 13.9167 16.6562 13.6146 16.4688 13.3438C16.3021 13.0521 16.0625 12.8333 15.75 12.6875L15.9375 11.9062C15.9792 11.6771 15.9271 11.4688 15.7812 11.2812C15.6354 11.0938 15.4479 11 15.2188 11H6.8125L6.625 10H15.7812C15.9479 10 16.0938 9.94792 16.2188 9.84375C16.3646 9.73958 16.4583 9.59375 16.5 9.40625Z" fill="white"/>
</svg>
