<svg width="38" height="55" viewBox="0 0 38 55" fill="none" xmlns="http://www.w3.org/2000/svg">
<path fill-rule="evenodd" clip-rule="evenodd" d="M38 21C38 25.5305 36.3262 29.6702 33.5632 32.8342L18 55L20.2328 38.9985C20.1553 38.9995 20.0777 39 20 39C10.0589 39 2 30.9412 2 21C2 11.0588 10.0589 3 20 3C29.9411 3 38 11.0588 38 21ZM20 32C26.0751 32 31 27.0752 31 21C31 14.9248 26.0751 10 20 10C13.9249 10 9 14.9248 9 21C9 27.0752 13.9249 32 20 32Z" fill="#142C52"/>
<path fill-rule="evenodd" clip-rule="evenodd" d="M36 18C36 22.5305 34.3262 26.6702 31.5632 29.8342L16 52L18.2328 35.9985C18.1553 35.9995 18.0777 36 18 36C8.05888 36 0 27.9412 0 18C0 8.05884 8.05888 0 18 0C27.9411 0 36 8.05884 36 18ZM18 29C24.0751 29 29 24.0752 29 18C29 11.9248 24.0751 7 18 7C11.9249 7 7 11.9248 7 18C7 24.0752 11.9249 29 18 29Z" fill="#EF2D56"/>
</svg>
