<svg width="14" height="15" viewBox="0 0 14 15" fill="none" xmlns="http://www.w3.org/2000/svg">
<path d="M13.8086 12.4422L11.0742 9.70786C10.9466 9.58025 10.7917 9.51645 10.6094 9.51645H10.1719C10.974 8.49562 11.375 7.32895 11.375 6.01645C11.375 4.97739 11.1198 4.02947 10.6094 3.1727C10.099 2.2977 9.40625 1.60499 8.53125 1.09457C7.67448 0.584157 6.72656 0.328949 5.6875 0.328949C4.64844 0.328949 3.69141 0.584157 2.81641 1.09457C1.95964 1.60499 1.27604 2.2977 0.765625 3.1727C0.255208 4.02947 0 4.97739 0 6.01645C0 7.05551 0.255208 8.01254 0.765625 8.88754C1.27604 9.74431 1.95964 10.4279 2.81641 10.9383C3.69141 11.4487 4.64844 11.7039 5.6875 11.7039C7 11.7039 8.16667 11.3029 9.1875 10.5008V10.9383C9.1875 11.1206 9.2513 11.2756 9.37891 11.4032L12.1133 14.1375C12.2409 14.2651 12.3958 14.3289 12.5781 14.3289C12.7604 14.3289 12.9154 14.2651 13.043 14.1375L13.8086 13.3719C13.9362 13.2443 14 13.0894 14 12.9071C14 12.7248 13.9362 12.5698 13.8086 12.4422ZM5.6875 9.51645C5.04948 9.51645 4.45703 9.3615 3.91016 9.05161C3.38151 8.74171 2.96224 8.32244 2.65234 7.79379C2.34245 7.24692 2.1875 6.65447 2.1875 6.01645C2.1875 5.37843 2.34245 4.79509 2.65234 4.26645C2.96224 3.71957 3.38151 3.29119 3.91016 2.98129C4.45703 2.6714 5.04948 2.51645 5.6875 2.51645C6.32552 2.51645 6.90885 2.6714 7.4375 2.98129C7.98438 3.29119 8.41276 3.71957 8.72266 4.26645C9.03255 4.79509 9.1875 5.37843 9.1875 6.01645C9.1875 6.65447 9.03255 7.24692 8.72266 7.79379C8.41276 8.32244 7.98438 8.74171 7.4375 9.05161C6.90885 9.3615 6.32552 9.51645 5.6875 9.51645Z" fill="white"/>
</svg>
