<svg width="24" height="22" viewBox="0 0 24 22" fill="none" xmlns="http://www.w3.org/2000/svg">
<path d="M0.84375 4.33594C0.580078 4.33594 0.369141 4.2832 0.210938 4.125C0.0527344 3.9668 0 3.75586 0 3.49219V1.38281C0 1.17188 0.0527344 0.960938 0.210938 0.802734C0.369141 0.644531 0.580078 0.539062 0.84375 0.539062H22.7812C22.9922 0.539062 23.2031 0.644531 23.3613 0.802734C23.5195 0.960938 23.625 1.17188 23.625 1.38281V3.49219C23.625 3.75586 23.5195 3.9668 23.3613 4.125C23.2031 4.2832 22.9922 4.33594 22.7812 4.33594H0.84375ZM0.84375 12.7734C0.580078 12.7734 0.369141 12.7207 0.210938 12.5625C0.0527344 12.4043 0 12.1934 0 11.9297V9.82031C0 9.60938 0.0527344 9.39844 0.210938 9.24023C0.369141 9.08203 0.580078 8.97656 0.84375 8.97656H22.7812C22.9922 8.97656 23.2031 9.08203 23.3613 9.24023C23.5195 9.39844 23.625 9.60938 23.625 9.82031V11.9297C23.625 12.1934 23.5195 12.4043 23.3613 12.5625C23.2031 12.7207 22.9922 12.7734 22.7812 12.7734H0.84375ZM0.84375 21.2109C0.580078 21.2109 0.369141 21.1582 0.210938 21C0.0527344 20.8418 0 20.6309 0 20.3672V18.2578C0 18.0469 0.0527344 17.8359 0.210938 17.6777C0.369141 17.5195 0.580078 17.4141 0.84375 17.4141H22.7812C22.9922 17.4141 23.2031 17.5195 23.3613 17.6777C23.5195 17.8359 23.625 18.0469 23.625 18.2578V20.3672C23.625 20.6309 23.5195 20.8418 23.3613 21C23.2031 21.1582 22.9922 21.2109 22.7812 21.2109H0.84375Z" fill="white"/>
</svg>
