<svg width="18" height="18" viewBox="0 0 18 18" fill="none" xmlns="http://www.w3.org/2000/svg">
<g clip-path="url(#clip0)">
<path fill-rule="evenodd" clip-rule="evenodd" d="M11.1393 8.99998L17.557 2.58231C18.1477 1.99156 18.1477 1.03376 17.557 0.443089C16.9662 -0.147665 16.0085 -0.147665 15.4177 0.443089L8.99998 6.86084L2.58223 0.443005C1.99147 -0.14775 1.03376 -0.14775 0.443002 0.443005C-0.147667 1.03376 -0.147667 1.99156 0.443002 2.58223L6.86076 8.9999L0.443002 15.4177C-0.147667 16.0084 -0.147667 16.9662 0.443002 17.5569C1.03376 18.1476 1.99147 18.1476 2.58223 17.5569L8.99998 11.1391L15.4177 17.5569C16.0084 18.1476 16.9662 18.1476 17.557 17.5569C18.1477 16.9661 18.1477 16.0084 17.557 15.4177L11.1393 8.99998Z" fill="#11A9B7"/>
</g>
<defs>
<clipPath id="clip0">
<rect width="18" height="18" fill="white"/>
</clipPath>
</defs>
</svg>
