<svg width="20" height="21" viewBox="0 0 20 21" fill="none" xmlns="http://www.w3.org/2000/svg">
<path d="M13.7637 10.125L19.4277 15.7891C19.7676 16.1289 19.9375 16.582 19.9375 17.0352C19.9375 17.5449 19.7676 17.998 19.4277 18.3379L18.1816 19.584C17.7852 19.9238 17.332 20.0938 16.8789 20.0938C16.3691 20.0938 15.9727 19.9238 15.6328 19.584L9.96875 13.9199L4.30469 19.584C3.96484 19.9238 3.51172 20.0938 3.05859 20.0938C2.54883 20.0938 2.0957 19.9238 1.75586 19.584L0.509766 18.3379C0.169922 17.998 0 17.5449 0 17.0352C0 16.582 0.169922 16.1289 0.509766 15.7891L6.17383 10.125L0.509766 4.46094C0.169922 4.12109 0 3.72461 0 3.21484C0 2.76172 0.169922 2.30859 0.509766 1.91211L1.75586 0.666016C2.0957 0.326172 2.54883 0.15625 3.05859 0.15625C3.51172 0.15625 3.96484 0.326172 4.30469 0.666016L9.96875 6.33008L15.6328 0.666016C15.9727 0.326172 16.3691 0.15625 16.8789 0.15625C17.332 0.15625 17.7852 0.326172 18.1816 0.666016L19.4277 1.91211C19.7676 2.30859 19.9375 2.76172 19.9375 3.21484C19.9375 3.72461 19.7676 4.12109 19.4277 4.46094L13.7637 10.125Z" fill="white"/>
</svg>
