<svg width="13" height="17" viewBox="0 0 13 17" fill="none" xmlns="http://www.w3.org/2000/svg">
<path d="M6.49999 8.31412C8.3901 8.31412 9.92248 6.45296 9.92248 4.15708C9.92248 1.86116 9.41938 0 6.49999 0C3.58061 0 3.07741 1.86116 3.07741 4.15708C3.07741 6.45296 4.60979 8.31412 6.49999 8.31412Z" fill="#0A3F5A"/>
<path d="M0.0355704 14.6614C0.0349871 14.5215 0.0344038 14.622 0.0355704 14.6614V14.6614Z" fill="#0A3F5A"/>
<path d="M12.9641 14.7708C12.966 14.7324 12.9648 14.5049 12.9641 14.7708V14.7708Z" fill="#0A3F5A"/>
<path d="M12.9568 14.4936C12.8934 10.4941 12.3711 9.35447 8.37402 8.63309C8.37402 8.63309 7.81137 9.35005 6.49994 9.35005C5.18851 9.35005 4.62577 8.63309 4.62577 8.63309C0.672294 9.3466 0.118191 10.4693 0.0453339 14.3636C0.0393596 14.6816 0.036591 14.6983 0.0355225 14.6614C0.0357653 14.7306 0.0360566 14.8585 0.0360566 15.0816C0.0360566 15.0816 0.987668 17 6.49994 17C12.0121 17 12.9638 15.0816 12.9638 15.0816C12.9638 14.9383 12.9639 14.8386 12.9641 14.7708C12.963 14.7936 12.9609 14.7494 12.9568 14.4936Z" fill="#0A3F5A"/>
</svg>
