<svg width="14" height="14" viewBox="0 0 14 14" fill="none" xmlns="http://www.w3.org/2000/svg">
<path d="M13.7266 4.97266C13.0703 5.49219 11.6484 6.53125 9.51562 8.0625L9.24219 8.28125C8.80469 8.60938 8.47656 8.85547 8.20312 8.99219C7.76562 9.26562 7.35547 9.375 7 9.375C6.61719 9.375 6.23438 9.26562 5.79688 9.01953C5.52344 8.88281 5.19531 8.63672 4.75781 8.30859L4.48438 8.0625C2.26953 6.47656 0.875 5.4375 0.273438 4.97266C0.21875 4.94531 0.136719 4.94531 0.0820312 4.97266C0.0273438 5 0 5.05469 0 5.10938V10.6875C0 11.0703 0.109375 11.3711 0.382812 11.6172C0.628906 11.8906 0.929688 12 1.3125 12H12.6875C13.043 12 13.3438 11.8906 13.6172 11.6172C13.8633 11.3711 14 11.0703 14 10.6875V5.10938C14 5.05469 13.9453 5 13.8906 4.94531C13.8359 4.91797 13.7812 4.91797 13.7266 4.97266ZM7 8.5C6.75391 8.5 6.45312 8.39062 6.125 8.17188C5.90625 8.0625 5.63281 7.87109 5.27734 7.57031L5.00391 7.37891C2.76172 5.73828 1.23047 4.61719 0.4375 3.98828L0.246094 3.85156C0.0820312 3.74219 0 3.55078 0 3.33203V2.8125C0 2.45703 0.109375 2.15625 0.382812 1.88281C0.628906 1.63672 0.929688 1.5 1.3125 1.5H12.6875C13.043 1.5 13.3438 1.63672 13.6172 1.88281C13.8633 2.15625 14 2.45703 14 2.8125V3.33203C14 3.55078 13.918 3.74219 13.7539 3.85156L13.6172 3.96094C12.8242 4.58984 11.293 5.73828 8.99609 7.37891L8.72266 7.57031C8.33984 7.87109 8.06641 8.0625 7.875 8.17188C7.51953 8.39062 7.21875 8.5 7 8.5Z" fill="#11A9B7"/>
</svg>
