<svg width="17" height="16" viewBox="0 0 17 16" fill="none" xmlns="http://www.w3.org/2000/svg">
<path d="M16.4062 0.78125C16.5938 0.8125 16.7188 0.90625 16.8438 1.03125C16.9375 1.1875 17 1.34375 17 1.5C17 4.125 16.3438 6.5625 15.0312 8.8125C13.7188 11 12 12.75 9.8125 14.0312C7.5625 15.3438 5.125 16 2.5 16C2.3125 16 2.15625 15.9688 2.03125 15.8438C1.875 15.75 1.78125 15.5938 1.78125 15.4062L1.03125 12.1562C0.96875 12 1 11.8438 1.09375 11.6562C1.15625 11.5 1.28125 11.375 1.46875 11.3125L4.96875 9.8125C5.09375 9.75 5.25 9.75 5.4375 9.78125C5.59375 9.8125 5.71875 9.90625 5.84375 10.0312L7.375 11.9062C8.59375 11.3438 9.6875 10.5938 10.625 9.625C11.5625 8.6875 12.3438 7.59375 12.9062 6.375L11.0312 4.8125C10.9062 4.71875 10.8125 4.59375 10.7812 4.4375C10.7188 4.28125 10.75 4.125 10.8125 3.9375L12.3125 0.4375C12.375 0.3125 12.4688 0.1875 12.6562 0.09375C12.8125 0.03125 12.9688 0 13.1562 0.03125L16.4062 0.78125Z" fill="#11A9B7"/>
</svg>
