<svg width="16" height="16" viewBox="0 0 16 16" fill="none" xmlns="http://www.w3.org/2000/svg">
<path d="M8 0.25C9.02083 0.25 9.98958 0.4375 10.9062 0.8125C11.8229 1.1875 12.6354 1.71875 13.3438 2.40625L14.4688 1.28125C14.6146 1.13542 14.7917 1.0625 15 1.0625C15.2083 1.0625 15.3854 1.13542 15.5312 1.28125C15.6771 1.42708 15.75 1.60417 15.75 1.8125V6C15.75 6.20833 15.6771 6.38542 15.5312 6.53125C15.3854 6.67708 15.2083 6.75 15 6.75H10.8125C10.6042 6.75 10.4271 6.67708 10.2812 6.53125C10.1354 6.38542 10.0625 6.20833 10.0625 6C10.0625 5.79167 10.1354 5.61458 10.2812 5.46875L11.5938 4.15625C11.1146 3.71875 10.5625 3.375 9.9375 3.125C9.33333 2.875 8.69792 2.75 8.03125 2.75C7.09375 2.75 6.21875 2.98958 5.40625 3.46875C4.59375 3.92708 3.94792 4.5625 3.46875 5.375C2.98958 6.1875 2.75 7.07292 2.75 8.03125C2.75 8.96875 2.97917 9.84375 3.4375 10.6562C3.91667 11.4479 4.55208 12.0833 5.34375 12.5625C6.15625 13.0208 7.04167 13.25 8 13.25C8.64583 13.25 9.26042 13.1458 9.84375 12.9375C10.4479 12.7083 10.9896 12.375 11.4688 11.9375C11.5312 11.875 11.6146 11.8542 11.7188 11.875C11.8229 11.875 11.9062 11.9062 11.9688 11.9688L13.2188 13.2188C13.2812 13.2812 13.3125 13.375 13.3125 13.5C13.3125 13.6042 13.2708 13.6875 13.1875 13.75C12.5 14.375 11.7083 14.8646 10.8125 15.2188C9.91667 15.5729 8.97917 15.75 8 15.75C6.60417 15.75 5.3125 15.3958 4.125 14.6875C2.9375 14 1.98958 13.0625 1.28125 11.875C0.59375 10.6875 0.25 9.39583 0.25 8C0.25 6.60417 0.59375 5.3125 1.28125 4.125C1.98958 2.9375 2.9375 2 4.125 1.3125C5.3125 0.604167 6.60417 0.25 8 0.25Z" fill="white"/>
</svg>
