<svg width="14" height="14" viewBox="0 0 14 14" fill="none" xmlns="http://www.w3.org/2000/svg">
<path d="M8.0625 12.9062C8.1875 12.7812 8.25 12.5938 8.25 12.375C8.25 12.1875 8.15625 12 8.03125 11.8438L4.28125 8.25H13.25C13.4375 8.25 13.625 8.1875 13.7812 8.03125C13.9062 7.90625 14 7.71875 14 7.5V6.5C14 6.3125 13.9062 6.125 13.7812 5.96875C13.625 5.84375 13.4375 5.75 13.25 5.75H4.28125L8.03125 2.15625C8.15625 2.03125 8.25 1.84375 8.25 1.625C8.25 1.4375 8.1875 1.25 8.0625 1.09375L7.34375 0.40625C7.1875 0.28125 7 0.1875 6.8125 0.1875C6.59375 0.1875 6.40625 0.28125 6.28125 0.40625L0.21875 6.46875C0.0625 6.625 0 6.8125 0 7C0 7.21875 0.0625 7.40625 0.21875 7.53125L6.28125 13.5938C6.40625 13.75 6.59375 13.8125 6.8125 13.8125C7 13.8125 7.1875 13.75 7.34375 13.5938L8.0625 12.9062Z" fill="#11A9B7"/>
</svg>
