<svg width="16" height="17" viewBox="0 0 16 17" fill="none" xmlns="http://www.w3.org/2000/svg">
<path d="M14.0625 16.125C14.5195 16.125 14.9062 15.9844 15.2578 15.6328C15.5742 15.3164 15.75 14.9297 15.75 14.4375V2.0625C15.75 1.60547 15.5742 1.21875 15.2578 0.867188C14.9062 0.550781 14.5195 0.375 14.0625 0.375H1.6875C1.19531 0.375 0.808594 0.550781 0.492188 0.867188C0.140625 1.21875 0 1.60547 0 2.0625V14.4375C0 14.9297 0.140625 15.3164 0.492188 15.6328C0.808594 15.9844 1.19531 16.125 1.6875 16.125H14.0625ZM6.85547 12.6797C6.75 12.8203 6.60938 12.8555 6.46875 12.8555C6.29297 12.8555 6.15234 12.8203 6.08203 12.6797L2.42578 9.02344C2.28516 8.91797 2.25 8.77734 2.25 8.63672C2.25 8.49609 2.28516 8.35547 2.42578 8.21484L3.19922 7.44141C3.30469 7.33594 3.44531 7.26562 3.58594 7.26562C3.72656 7.26562 3.86719 7.33594 4.00781 7.44141L6.46875 9.90234L11.7422 4.62891C11.8477 4.52344 11.9883 4.45312 12.1289 4.45312C12.2695 4.45312 12.4102 4.52344 12.5508 4.62891L13.3242 5.40234C13.4297 5.54297 13.5 5.68359 13.5 5.82422C13.5 5.96484 13.4297 6.10547 13.3242 6.21094L6.85547 12.6797Z" fill="#11A9B7"/>
</svg>
